<?xml version="1.0" encoding="iso-8859-1"?>
<!-- Generator: Adobe Illustrator 21.0.0, SVG Export Plug-In . SVG Version: 6.00 Build 0)  -->
<svg version="1.1" id="Layer_1" xmlns="http://www.w3.org/2000/svg" xmlns:xlink="http://www.w3.org/1999/xlink" x="0px" y="0px"
	 viewBox="0 0 24 24" enable-background="new 0 0 24 24" xml:space="preserve">
<g>
	<path fill="#fff" d="M12,6c0.2763672,0,0.5-0.2236328,0.5-0.5v-1C12.5,4.2236328,12.2763672,4,12,4s-0.5,0.2236328-0.5,0.5v1
		C11.5,5.7763672,11.7236328,6,12,6z"/>
	<path fill="#fff" d="M7.6831055,5.5229492C7.5444336,5.2832031,7.2382812,5.2006836,7,5.3398438
		C6.7607422,5.4780273,6.6787109,5.7836914,6.8168945,6.0229492l0.5,0.8657227c0.0927734,0.1606445,0.2607422,0.25,0.4335938,0.25
		c0.0849609,0,0.1708984-0.0214844,0.2495117-0.0668945c0.2392578-0.1381836,0.3212891-0.4438477,0.1831055-0.6831055
		L7.6831055,5.5229492z"/>
	<path fill="#fff" d="M4.8886719,9.3168945l-0.8657227-0.5C3.7827148,8.6782227,3.4780273,8.7602539,3.3398438,9
		C3.2016602,9.2392578,3.2836914,9.5449219,3.5229492,9.6831055l0.8657227,0.5
		C4.4672852,10.2285156,4.5532227,10.25,4.6381836,10.25c0.1728516,0,0.3408203-0.0893555,0.4335938-0.25
		C5.2099609,9.7607422,5.1279297,9.4550781,4.8886719,9.3168945z"/>
	<path fill="#fff" d="M20.4770508,18.3168945l-0.8657227-0.5C19.371582,17.6782227,19.065918,17.7602539,18.9282227,18
		c-0.1381836,0.2392578-0.0561523,0.5449219,0.1831055,0.6831055l0.8657227,0.5
		C20.0556641,19.2285156,20.1416016,19.25,20.2265625,19.25c0.1728516,0,0.3408203-0.0893555,0.4335938-0.25
		C20.7983398,18.7607422,20.7163086,18.4550781,20.4770508,18.3168945z"/>
	<path fill="#fff" d="M4,14c0-0.2763672-0.2236328-0.5-0.5-0.5h-1C2.2236328,13.5,2,13.7236328,2,14s0.2236328,0.5,0.5,0.5h1
		C3.7763672,14.5,4,14.2763672,4,14z"/>
	<path fill="#fff" d="M22,14c0-0.2763672-0.2236328-0.5-0.5-0.5h-1c-0.2763672,0-0.5,0.2236328-0.5,0.5s0.2236328,0.5,0.5,0.5h1
		C21.7763672,14.5,22,14.2763672,22,14z"/>
	<path fill="#fff" d="M4.3886719,17.8168945l-0.8657227,0.5C3.2836914,18.4550781,3.2016602,18.7607422,3.3398438,19
		c0.0927734,0.1606445,0.2607422,0.25,0.4335938,0.25c0.0849609,0,0.1708984-0.0214844,0.2495117-0.0668945l0.8657227-0.5
		C5.1279297,18.5449219,5.2099609,18.2392578,5.0717773,18C4.9331055,17.7602539,4.6259766,17.6782227,4.3886719,17.8168945z"/>
	<path fill="#fff" d="M19.3618164,10.25c0.0849609,0,0.1708984-0.0214844,0.2495117-0.0668945l0.8657227-0.5
		C20.7163086,9.5449219,20.7983398,9.2392578,20.6601562,9c-0.1391602-0.2397461-0.4453125-0.3217773-0.6831055-0.1831055
		l-0.8657227,0.5C18.8720703,9.4550781,18.7900391,9.7607422,18.9282227,10
		C19.0209961,10.1606445,19.1889648,10.25,19.3618164,10.25z"/>
	<path fill="#fff" d="M17,5.3398438c-0.2392578-0.1391602-0.5454102-0.0566406-0.6831055,0.1831055l-0.5,0.8657227
		C15.6787109,6.6279297,15.7607422,6.9335938,16,7.0717773c0.0786133,0.0454102,0.1645508,0.0668945,0.2495117,0.0668945
		c0.1728516,0,0.3408203-0.0893555,0.4335938-0.25l0.5-0.8657227C17.3212891,5.7836914,17.2392578,5.4780273,17,5.3398438z"/>
	<path fill="#fff" d="M12,2C5.3833008,2,0,7.3833008,0,14c0,2.0039062,0.5048828,3.9887695,1.4604492,5.7397461
		c0.1323242,0.2421875,0.4355469,0.3310547,0.6787109,0.1992188c0.2421875-0.1323242,0.331543-0.4360352,0.1992188-0.6787109
		C1.4628906,17.65625,1,15.8369141,1,14C1,7.9345703,5.9345703,3,12,3s11,4.9345703,11,11
		c0,1.8369141-0.4628906,3.65625-1.3383789,5.2602539c-0.1323242,0.2426758-0.0429688,0.5463867,0.1992188,0.6787109
		C21.9370117,19.9804688,22.019043,20,22.1000977,20c0.1772461,0,0.3486328-0.0942383,0.4394531-0.2602539
		C23.4951172,17.9887695,24,16.0039062,24,14C24,7.3833008,18.6166992,2,12,2z"/>
	<path fill="#fff" d="M12.4980469,8.4560547C12.4755859,8.1982422,12.2592773,8,12,8s-0.4755859,0.1982422-0.4980469,0.4560547
		l-0.887207,10.1083984C10.2216797,18.9414062,10,19.453125,10,20c0,1.1030273,0.8969727,2,2,2s2-0.8969727,2-2
		c0-0.546875-0.2216797-1.0585938-0.6147461-1.4355469L12.4980469,8.4560547z M12,21c-0.5512695,0-1-0.4487305-1-1
		c0-0.3100586,0.1455078-0.5986328,0.3984375-0.7919922c0.1118164-0.0854492,0.1826172-0.2138672,0.1948242-0.3535156L12,14.2197266
		l0.4067383,4.6347656c0.012207,0.1396484,0.0830078,0.2680664,0.1948242,0.3535156C12.8544922,19.4013672,13,19.6899414,13,20
		C13,20.5512695,12.5512695,21,12,21z"/>
</g>
<g>
</g>
<g>
</g>
<g>
</g>
<g>
</g>
<g>
</g>
<g>
</g>
<g>
</g>
<g>
</g>
<g>
</g>
<g>
</g>
<g>
</g>
<g>
</g>
<g>
</g>
<g>
</g>
<g>
</g>
</svg>
