<?xml version="1.0" encoding="utf-8"?>
<!-- Generator: Adobe Illustrator 23.0.4, SVG Export Plug-In . SVG Version: 6.00 Build 0)  -->
<svg version="1.1" id="Icons" xmlns="http://www.w3.org/2000/svg" xmlns:xlink="http://www.w3.org/1999/xlink" x="0px" y="0px"
	 viewBox="0 0 32 32" style="enable-background:new 0 0 32 32;" xml:space="preserve">
<style type="text/css">
	.st0{fill:none;stroke:#fff;stroke-width:2;stroke-linecap:round;stroke-linejoin:round;stroke-miterlimit:10;}
	.st1{fill:none;stroke:#fff;stroke-width:2;stroke-linejoin:round;stroke-miterlimit:10;}
</style>
<path class="st0" d="M11.23,8.85C11.68,7.76,12.75,7,14,7c1.66,0,3,1.34,3,3s-1.34,3-3,3H7"/>
<path class="st0" d="M21.31,26.53C21.91,27.98,23.33,29,25,29c2.21,0,4-1.79,4-4s-1.79-4-4-4H13"/>
<path class="st0" d="M16.5,8.01c0.98-2.35,3.3-4.01,6-4.01c3.59,0,6.5,2.91,6.5,6.5S26.09,17,22.5,17H3"/>
<line class="st0" x1="6" y1="21" x2="9" y2="21"/>
</svg>
